<?xml version="1.0" encoding="UTF-8"?>
<svg version="1.1" xmlns="http://www.w3.org/2000/svg" width="256" height="256">
<path d="M0 0 C10.99389642 -0.33697767 22.17262248 1.26855283 32.6640625 4.5 C33.31060791 4.69682373 33.95715332 4.89364746 34.62329102 5.09643555 C39.70280377 6.77010142 43.88145348 9.23940188 47.8515625 12.8125 C50.33590145 17.91919673 49.28640799 23.77033073 47.62109375 29.01953125 C47.02567492 30.66445755 46.41479311 32.30386377 45.7890625 33.9375 C45.49708984 34.76958984 45.20511719 35.60167969 44.90429688 36.45898438 C43.10941598 41.27235313 41.57775245 44.4192688 36.9765625 47.125 C30.39568569 48.16408581 25.97102672 46.02091703 19.98828125 43.37109375 C10.29825135 39.36185959 -1.18652866 38.31342434 -11.078125 42.16015625 C-14.24535369 43.7310508 -15.99826394 45.21381301 -18.0234375 48.125 C-19.30615919 52.46220271 -19.36148704 55.97563156 -18.0859375 60.3125 C-12.34151968 68.14579702 -3.40052117 71.4521325 5.2890625 75.125 C27.38459373 84.55766703 44.23108653 94.4206749 53.9765625 117.125 C58.91309085 130.01239701 56.52954657 146.15649889 51.60546875 158.5859375 C45.94947973 171.09150555 37.30981434 179.90791069 24.9765625 186.125 C24.26113281 186.50140625 23.54570312 186.8778125 22.80859375 187.265625 C13.5835546 191.7689228 3.1680991 193.58683305 -7.0234375 194.125 C-7.76335937 194.16625 -8.50328125 194.2075 -9.265625 194.25 C-27.39633653 194.73836933 -47.73056245 191.28504544 -63.0234375 181.125 C-66.28723961 177.18011521 -66.48598504 174.15134997 -66.0234375 169.125 C-65.32637865 165.69102297 -64.39535718 162.35778418 -63.3984375 159 C-63.16253906 158.11957031 -62.92664063 157.23914063 -62.68359375 156.33203125 C-60.95448455 150.45305997 -59.23242715 147.45146619 -54.0234375 144.125 C-47.22021942 142.8347345 -43.00605202 145.40959513 -37.05078125 148.59375 C-25.80064124 154.2841434 -12.30994032 155.89299187 -0.0625 152.8203125 C4.73955698 151.18282947 8.33559286 148.43395046 10.9765625 144.125 C12.68383028 139.00319666 12.59013396 134.08075903 10.9765625 128.9375 C4.30283204 119.55256654 -7.9016286 115.70191824 -18.1640625 111.37109375 C-36.81648079 103.47594867 -52.27608747 93.2860981 -60.3984375 73.9375 C-65.01225287 59.91629485 -63.49428469 45.18737937 -57.3984375 31.875 C-49.59530391 17.44112482 -36.51541893 8.01355453 -21.01171875 3.1875 C-14.01856269 1.32504615 -7.20084533 0.44483987 0 0 Z " fill="#000000" transform="translate(133.0234375,30.875)"/>
</svg>
